<?xml version="1.0" standalone="no"?>
<!DOCTYPE svg PUBLIC "-//W3C//DTD SVG 20010904//EN"
 "http://www.w3.org/TR/2001/REC-SVG-20010904/DTD/svg10.dtd">
<svg version="1.0" xmlns="http://www.w3.org/2000/svg"
 width="1186.000000pt" height="1186.000000pt" viewBox="0 0 1186.000000 1186.000000"
 preserveAspectRatio="xMidYMid meet">
<metadata>
Created by potrace 1.14, written by Peter Selinger 2001-2017
</metadata>
<g transform="translate(0.000000,1186.000000) scale(0.100000,-0.100000)"
fill="#000000" stroke="none">
<path d="M0 5930 l0 -5930 5930 0 5930 0 0 5930 0 5930 -5930 0 -5930 0 0
-5930z m5934 3628 c-2 -145 -3 -953 -3 -1797 l-1 -1534 -227 7 c-126 5 -253
11 -283 14 l-55 7 -3 490 c-2 270 0 658 4 862 6 333 8 375 24 393 9 11 20 17
24 13 3 -3 6 -1 6 5 0 30 79 85 101 71 8 -5 9 -9 4 -9 -6 0 -11 -10 -12 -21
-2 -21 -1 -21 11 -3 16 24 17 54 0 47 -6 -2 -15 1 -20 8 -4 8 -3 10 4 5 11 -6
17 12 13 37 -1 10 27 9 33 -2 3 -5 -1 -12 -10 -15 -9 -4 -12 -11 -7 -18 4 -7
8 -16 8 -20 0 -12 15 -22 15 -10 0 7 8 12 18 12 14 1 12 3 -6 13 -12 7 -20 16
-16 20 4 4 13 2 20 -4 8 -7 14 -7 19 1 4 6 3 10 -2 9 -20 -3 -27 2 -13 11 12
8 10 10 -9 10 -21 0 -15 9 49 75 40 40 77 72 82 69 7 -5 12 10 9 29 0 4 4 7 9
7 6 0 10 -4 10 -9 0 -5 3 -17 7 -27 4 -12 3 -15 -5 -10 -8 5 -12 0 -12 -13 0
-14 5 -19 15 -15 8 4 15 15 15 25 0 10 6 19 13 20 6 0 3 4 -8 9 -11 5 -14 9
-7 9 19 1 63 37 55 45 -3 3 7 6 22 6 23 0 26 3 17 12 -13 13 -16 29 -4 25 12
-4 15 7 8 29 -5 16 2 30 24 54 16 18 30 36 30 42 0 5 5 6 10 3 6 -3 10 -1 10
4 0 28 -32 1 -149 -121 -69 -73 -215 -223 -326 -333 -212 -212 -402 -410 -815
-850 -139 -148 -296 -315 -349 -370 -53 -55 -135 -142 -183 -193 l-88 -92
-335 7 c-215 4 -335 3 -335 -4 0 -5 9 -28 20 -51 11 -22 20 -48 20 -55 0 -8
15 -28 33 -44 78 -71 492 -507 562 -591 15 -17 31 -29 36 -26 5 3 8 1 7 -4 -4
-14 89 -126 213 -254 31 -31 54 -60 51 -63 -3 -3 2 -5 12 -5 9 0 15 -4 12 -8
-3 -5 11 -26 31 -48 20 -21 67 -74 104 -117 38 -43 81 -92 98 -110 44 -48 122
-137 161 -182 18 -22 59 -69 91 -105 31 -36 101 -116 154 -178 53 -62 99 -111
102 -108 6 5 -96 148 -110 154 -4 2 -17 22 -28 44 -20 39 -114 169 -242 333
-34 44 -68 92 -75 107 -8 14 -29 44 -48 66 -19 22 -34 43 -34 46 0 4 -57 83
-127 176 -109 147 -128 168 -142 157 -14 -11 -15 -10 -1 7 11 15 12 20 3 23
-7 3 -13 10 -13 17 0 17 -35 48 -44 39 -4 -4 -5 -1 -1 7 3 9 -11 35 -32 62
-42 51 -107 142 -126 174 -13 23 -52 78 -98 139 -16 22 -37 51 -46 65 -9 14
-25 34 -35 46 -23 26 -90 136 -78 129 8 -5 58 -73 492 -670 96 -132 210 -289
254 -350 414 -567 544 -753 544 -777 0 -10 4 -17 9 -15 12 3 269 -339 466
-618 82 -115 160 -226 173 -245 14 -19 -48 37 -139 125 -90 88 -295 284 -454
435 -160 151 -371 354 -470 450 -99 96 -320 310 -491 475 -359 347 -1152 1114
-1269 1228 l-80 77 41 38 c57 50 267 270 1003 1047 791 835 1093 1153 1556
1640 204 215 404 425 444 468 41 42 77 77 81 77 3 0 5 -118 4 -262z m-164
-1187 c-5 -10 -7 -20 -5 -23 3 -3 -2 -5 -10 -5 -18 0 -19 11 -3 36 15 24 32
16 18 -8z m1315 -633 c319 -321 546 -551 505 -512 -41 39 -155 149 -253 245
-374 366 -409 396 -390 341 3 -9 -7 -2 -22 16 -14 17 -34 32 -42 32 -9 0 -24
7 -33 15 -15 14 -18 14 -23 1 -4 -10 -1 -13 9 -9 9 3 14 0 12 -8 -2 -7 7 -18
20 -24 27 -12 29 -29 2 -22 -13 3 -20 0 -20 -10 0 -9 -6 -13 -15 -9 -8 3 -15
1 -15 -3 0 -5 7 -12 16 -15 13 -5 14 -9 4 -21 -10 -12 -8 -13 9 -10 27 5 27
-7 0 -23 -16 -10 -19 -10 -13 -1 5 8 2 11 -8 6 -10 -3 -15 0 -14 10 0 9 -6 18
-14 20 -13 4 -13 3 0 -7 13 -10 13 -11 0 -7 -8 2 -14 13 -12 24 2 17 -2 20
-25 17 -15 -2 -22 -1 -15 2 6 3 12 10 12 16 0 7 -5 7 -13 -1 -8 -6 -18 -7 -23
-3 -4 4 -2 -1 5 -10 7 -10 20 -18 28 -18 8 0 11 -4 8 -10 -3 -5 -2 -10 3 -10
5 0 15 -11 22 -25 7 -14 15 -23 18 -20 5 4 14 -5 101 -101 57 -64 246 -259
495 -514 l201 -205 -235 232 c-129 127 -387 381 -573 565 -279 275 -337 329
-338 308 0 -14 -1 -110 -3 -215 -2 -104 -5 -381 -6 -615 -3 -398 -4 -413 -12
-245 -5 99 -9 192 -10 208 -1 21 -7 27 -24 27 -12 0 -24 -6 -27 -12 -3 -10 -8
-9 -22 2 -11 9 -16 10 -11 3 4 -9 1 -13 -9 -13 -11 0 -15 -5 -12 -14 3 -8 -3
-22 -14 -32 -17 -15 -19 -15 -19 -1 0 9 -4 19 -10 22 -6 4 -7 -1 -3 -11 5 -14
3 -16 -10 -11 -14 5 -16 3 -8 -12 6 -10 7 -22 3 -26 -4 -5 1 -5 11 -2 24 9 21
0 -4 -14 -12 -6 -19 -7 -16 -1 4 5 0 18 -8 28 -10 12 -13 13 -10 4 3 -9 -2
-24 -11 -35 -8 -11 -13 -15 -10 -8 4 6 2 14 -4 18 -5 3 -10 2 -10 -4 0 -5 -7
-16 -15 -24 -13 -13 -13 -16 1 -21 10 -4 13 -2 8 6 -4 7 -3 8 4 4 17 -10 15
-26 -4 -26 -9 0 -13 -5 -9 -12 4 -7 -1 -4 -11 7 -16 20 -16 20 -12 -1 6 -25
-8 -45 -44 -61 -21 -9 -28 -9 -32 0 -3 7 -4 -3 -2 -21 3 -18 0 -30 -5 -26 -5
3 -9 13 -10 22 0 11 -2 12 -6 4 -2 -6 -9 -10 -13 -7 -5 3 -12 0 -16 -6 -4 -8
-3 -9 4 -5 7 4 12 3 12 -3 0 -5 -4 -13 -10 -16 -5 -3 -10 -12 -10 -18 0 -8 3
-8 9 1 7 11 9 11 14 0 6 -18 -22 -20 -42 -4 -12 9 -13 8 -6 -3 5 -9 2 -18 -9
-27 -13 -9 -17 -22 -13 -48 3 -20 2 -36 -2 -36 -4 0 -9 -80 -10 -177 -1 -98
-4 -180 -7 -182 -2 -2 -4 191 -4 430 0 239 -3 549 -6 689 -3 140 -2 265 2 277
13 32 525 573 543 573 3 0 267 -262 586 -582z m-205 55 c0 -5 -4 -14 -9 -21
-7 -11 -9 -11 -14 1 -3 8 -3 18 0 21 9 8 23 7 23 -1z m23 -12 c3 -13 1 -18 -9
-14 -7 2 -10 11 -7 19 7 19 10 18 16 -5z m22 -43 c5 4 5 2 2 -5 -4 -6 -1 -14
5 -16 8 -3 8 -6 2 -6 -6 -1 -19 9 -30 21 -12 14 -13 18 -3 10 9 -6 20 -8 24
-4z m830 -668 c27 -27 47 -50 44 -50 -3 0 -27 23 -54 50 -27 28 -47 50 -44 50
3 0 27 -22 54 -50z m955 -490 c16 -6 6 -7 -30 -3 -30 3 -57 7 -59 9 -8 7 64 2
89 -6z m-644 -14 c-1 -8 -7 -20 -13 -27 -30 -39 -103 -149 -103 -157 0 -5 -11
-19 -25 -32 -14 -13 -23 -25 -21 -28 3 -2 -5 -14 -16 -27 -11 -13 -19 -26 -18
-30 1 -4 -2 -11 -7 -14 -13 -8 -164 -231 -157 -231 3 0 -8 -14 -25 -31 -17
-17 -31 -35 -31 -40 0 -5 -9 -20 -20 -31 -24 -26 -220 -305 -220 -313 0 -3
-18 -30 -41 -58 -58 -74 -138 -187 -270 -380 -270 -395 -308 -450 -384 -555
-147 -203 -89 -107 96 160 301 433 528 761 649 938 43 63 142 205 219 315 77
110 195 280 262 378 66 97 122 177 124 177 2 0 2 -6 1 -14z m739 -11 l50 -15
-45 6 c-25 4 -52 10 -60 15 -22 13 -1 10 55 -6z m145 -28 c0 -4 -995 -993
-1240 -1232 -124 -121 -351 -344 -505 -495 -154 -151 -345 -338 -425 -415 -80
-77 -274 -267 -432 -424 -159 -156 -288 -281 -288 -277 0 5 13 25 28 45 16 20
57 79 92 131 64 96 188 261 299 400 33 41 99 125 145 185 98 126 169 213 311
380 55 64 112 133 127 152 29 38 48 60 258 303 74 86 194 225 265 310 413 489
590 687 655 733 36 25 47 28 88 23 136 -17 277 -23 381 -15 13 1 31 9 40 18
10 9 52 49 94 89 43 40 75 77 72 82 -3 6 3 10 14 10 12 0 21 -1 21 -3z m-2885
-187 l20 -9 -20 1 c-11 0 -33 4 -50 8 l-30 8 30 0 c17 0 39 -3 50 -8z m-871
-356 c11 -28 6 -52 -10 -58 -9 -3 -42 -6 -75 -6 -59 0 -59 0 -59 -30 0 -30 1
-30 55 -30 l55 0 0 -34 0 -35 -52 -3 -53 -3 -5 -70 -5 -70 -40 0 -40 0 -1 172
-2 172 72 4 c39 1 90 4 112 5 30 1 44 -2 48 -14z m1565 -102 c25 -62 48 -109
53 -104 5 5 28 55 51 113 l43 104 52 3 52 3 -2 -178 c-3 -195 -3 -194 -65
-178 -25 6 -25 7 -23 93 2 48 2 92 1 97 -1 6 -15 -27 -30 -71 -41 -115 -47
-124 -81 -124 -34 0 -39 8 -76 112 -14 40 -30 77 -34 81 -4 5 -7 -36 -6 -90
l1 -98 -40 0 -40 0 -3 178 -2 178 52 -3 53 -3 44 -113z m-888 -53 l22 -31 19
31 c15 23 27 31 49 31 28 0 29 -2 18 -22 -7 -13 -20 -35 -30 -50 -25 -35 -24
-42 11 -93 17 -24 30 -46 30 -49 0 -3 -13 -6 -29 -6 -23 0 -34 7 -48 30 -9 17
-20 30 -23 30 -3 0 -13 -14 -22 -30 -12 -21 -25 -30 -43 -30 -23 0 -25 3 -19
23 4 12 18 37 32 55 l25 33 -32 43 c-37 53 -39 66 -7 66 16 0 32 -11 47 -31z
m982 -2485 c3 -3 3 -12 0 -20 -4 -12 -149 -14 -953 -14 -622 0 -951 3 -955 10
-3 6 -3 15 0 20 7 11 1897 15 1908 4z m-2623 -359 c0 -11 -12 -15 -45 -15 -43
0 -45 -1 -45 -30 0 -28 3 -30 35 -30 24 0 35 -5 35 -15 0 -10 -11 -15 -35 -15
-35 0 -35 0 -35 -45 0 -33 -4 -45 -15 -45 -12 0 -15 18 -15 105 l0 105 60 0
c47 0 60 -3 60 -15z m180 -90 c0 -87 -3 -105 -15 -105 -12 0 -15 18 -15 105 0
87 3 105 15 105 12 0 15 -18 15 -105z m300 85 c27 -27 25 -56 -5 -86 l-26 -26
21 -32 c24 -40 25 -46 6 -46 -8 0 -25 18 -37 40 -14 24 -30 40 -41 40 -14 0
-18 -8 -18 -40 0 -29 -4 -40 -15 -40 -12 0 -15 18 -15 105 l0 105 55 0 c42 0
60 -5 75 -20z m336 -14 c36 -41 33 -108 -5 -147 -26 -26 -36 -29 -90 -29 l-61
0 0 106 0 106 66 -4 c58 -4 70 -8 90 -32z m309 -49 c44 -121 45 -127 29 -127
-7 0 -18 9 -24 20 -8 15 -21 20 -55 20 -35 0 -45 -4 -50 -20 -3 -11 -13 -20
-21 -20 -19 0 -13 34 20 118 13 31 26 65 29 75 4 9 14 17 24 17 13 0 26 -21
48 -83z m235 -2 c0 -75 2 -86 20 -95 28 -15 59 -3 71 27 5 13 9 53 9 89 0 50
3 64 15 64 12 0 15 -15 15 -79 0 -101 -19 -131 -84 -131 -65 0 -80 23 -85 126
-3 80 -2 84 18 84 20 0 21 -5 21 -85z m420 64 c16 -30 4 -36 -30 -16 -23 14
-34 16 -50 7 -33 -17 -20 -43 30 -60 27 -10 50 -25 59 -42 13 -23 13 -28 -2
-52 -15 -22 -25 -26 -62 -26 -34 0 -47 5 -59 22 -9 12 -16 26 -16 30 0 14 30
8 36 -7 14 -36 74 -24 74 15 0 13 -15 23 -50 35 -58 19 -73 49 -46 90 22 34
99 37 116 4z m450 -59 c18 -44 34 -80 37 -80 2 0 20 36 40 80 26 58 41 80 54
80 17 0 19 -9 19 -105 0 -87 -3 -105 -15 -105 -12 0 -15 15 -15 78 l0 77 -33
-75 c-19 -44 -38 -75 -47 -75 -9 0 -28 31 -47 75 l-33 75 0 -77 c0 -63 -3 -78
-15 -78 -12 0 -15 18 -15 105 0 96 2 105 19 105 14 0 27 -20 51 -80z m433 65
c1 -5 -17 -11 -40 -13 -40 -3 -43 -5 -43 -33 0 -27 3 -29 35 -29 24 0 35 -5
35 -15 0 -10 -11 -15 -35 -15 -32 0 -35 -2 -35 -30 0 -28 2 -30 40 -30 29 0
40 -4 40 -15 0 -12 -13 -15 -55 -15 l-55 0 0 105 0 106 55 -3 c30 -2 56 -7 58
-13z m306 -11 c39 -32 49 -80 26 -127 -20 -42 -50 -57 -115 -57 l-50 0 0 105
0 105 54 0 c44 0 60 -5 85 -26z m231 -79 c0 -87 -3 -105 -15 -105 -12 0 -15
18 -15 105 0 87 3 105 15 105 12 0 15 -18 15 -105z m300 8 c19 -53 37 -101 38
-105 8 -18 -28 -7 -38 12 -16 29 -85 28 -110 -2 -31 -38 -35 -12 -10 60 60
170 71 174 120 35z"/>
<path d="M5865 8476 c-18 -13 -18 -15 -3 -21 17 -7 18 -21 4 -44 -6 -10 -5
-12 3 -7 18 12 32 55 23 72 -7 12 -11 12 -27 0z"/>
<path d="M5801 8339 l-23 -31 26 17 c14 10 26 24 26 31 0 20 -3 18 -29 -17z"/>
<path d="M5766 8288 c3 -4 9 -8 15 -8 5 0 9 4 9 8 0 5 -7 9 -15 9 -8 0 -12 -4
-9 -9z"/>
<path d="M5698 8278 c-7 -18 1 -38 15 -38 8 0 8 3 0 11 -6 6 -9 18 -6 25 3 8
3 14 0 14 -3 0 -7 -6 -9 -12z"/>
<path d="M5760 8260 c0 -5 5 -10 11 -10 5 0 7 5 4 10 -3 6 -8 10 -11 10 -2 0
-4 -4 -4 -10z"/>
<path d="M5646 8217 c3 -10 9 -15 12 -12 3 3 0 11 -7 18 -10 9 -11 8 -5 -6z"/>
<path d="M5623 8205 c0 -8 4 -12 9 -9 5 3 6 10 3 15 -9 13 -12 11 -12 -6z"/>
<path d="M5621 8104 c0 -11 3 -14 6 -6 3 7 2 16 -1 19 -3 4 -6 -2 -5 -13z"/>
<path d="M5576 8075 c-17 -13 -18 -15 -3 -15 9 0 17 5 17 11 0 5 5 7 12 3 7
-4 8 -3 4 4 -9 14 -7 15 -30 -3z"/>
<path d="M5537 8036 c-3 -6 2 -17 9 -24 8 -7 14 -8 14 -3 0 5 7 16 14 24 13
13 12 15 -9 15 -13 0 -26 -6 -28 -12z"/>
<path d="M5445 8030 c-3 -5 -2 -10 4 -10 5 0 13 5 16 10 3 6 2 10 -4 10 -5 0
-13 -4 -16 -10z"/>
<path d="M5471 8014 c-6 -15 -7 -23 -1 -19 5 3 10 1 10 -5 0 -7 7 -9 16 -6 8
3 12 2 9 -3 -3 -5 -1 -12 4 -15 5 -4 12 -2 16 4 4 6 11 7 17 4 6 -4 3 4 -8 18
-10 14 -21 23 -24 19 -3 -3 -11 -7 -17 -8 -17 -4 -17 14 -1 19 8 3 9 6 1 11
-5 3 -15 -5 -22 -19z m54 -23 c3 -5 2 -12 -3 -15 -5 -3 -9 1 -9 9 0 17 3 19
12 6z"/>
<path d="M5600 8029 c0 -5 5 -7 10 -4 6 3 10 8 10 11 0 2 -4 4 -10 4 -5 0 -10
-5 -10 -11z"/>
<path d="M5405 7938 c6 -86 6 -87 23 -80 9 3 13 1 9 -5 -3 -5 0 -10 8 -10 8 0
11 5 8 10 -4 6 0 8 10 4 9 -3 19 -2 22 3 4 6 -3 10 -14 10 -11 0 -23 5 -26 10
-4 6 -11 8 -16 5 -5 -3 -6 2 -2 11 5 13 3 15 -7 9 -8 -5 -11 -3 -8 6 3 8 16
13 29 11 17 -1 20 0 10 7 -10 7 -6 11 18 16 28 6 45 25 22 25 -5 0 -18 3 -28
6 -15 5 -15 4 -3 -5 19 -13 7 -24 -20 -16 -11 4 -19 13 -18 22 2 9 -2 18 -9
20 -9 3 -11 -13 -8 -59z"/>
<path d="M5540 7945 c0 -8 4 -15 10 -15 5 0 7 7 4 15 -4 8 -8 15 -10 15 -2 0
-4 -7 -4 -15z"/>
<path d="M5516 7939 c5 -9 -1 -10 -20 -5 -14 3 -26 2 -26 -3 0 -5 15 -11 34
-13 31 -3 33 -2 25 14 -5 10 -12 18 -15 18 -3 0 -2 -5 2 -11z"/>
<path d="M5448 7903 c6 -2 9 -10 6 -15 -4 -7 -2 -8 5 -4 13 9 5 26 -12 25 -9
0 -8 -2 1 -6z"/>
<path d="M5480 7899 c0 -5 5 -7 10 -4 6 3 10 8 10 11 0 2 -4 4 -10 4 -5 0 -10
-5 -10 -11z"/>
<path d="M6830 7950 c0 -5 5 -10 11 -10 5 0 7 5 4 10 -3 6 -8 10 -11 10 -2 0
-4 -4 -4 -10z"/>
<path d="M6773 7935 c0 -8 4 -12 9 -9 5 3 6 10 3 15 -9 13 -12 11 -12 -6z"/>
<path d="M6879 7893 c15 -29 58 -65 65 -55 3 6 -10 24 -29 41 -40 35 -50 39
-36 14z"/>
<path d="M6783 7816 c-3 -5 -1 -6 5 -2 7 4 12 3 12 -3 0 -6 7 -8 15 -5 8 4 15
9 15 13 0 10 -41 8 -47 -3z"/>
<path d="M6406 7213 c-6 -14 -5 -15 5 -6 7 7 10 15 7 18 -3 3 -9 -2 -12 -12z"/>
<path d="M6400 7179 c0 -5 -5 -7 -12 -3 -7 4 -8 3 -4 -4 10 -17 36 -15 36 3 0
8 -4 15 -10 15 -5 0 -10 -5 -10 -11z"/>
<path d="M6300 7110 c0 -5 5 -10 11 -10 5 0 7 5 4 10 -3 6 -8 10 -11 10 -2 0
-4 -4 -4 -10z"/>
<path d="M6136 6961 c-4 -6 -2 -11 4 -11 6 0 8 -4 5 -10 -3 -5 -15 -10 -26
-10 -10 0 -19 -4 -19 -10 0 -15 15 -12 39 8 14 11 18 21 12 31 -6 9 -11 10
-15 2z"/>
<path d="M4610 2935 c0 -36 0 -36 38 -33 34 3 37 6 37 33 0 27 -3 30 -37 33
-38 3 -38 3 -38 -33z"/>
<path d="M4920 2895 l0 -75 40 0 c73 0 104 66 59 124 -16 20 -29 26 -60 26
l-39 0 0 -75z"/>
<path d="M5288 2911 c-18 -46 -16 -51 24 -51 26 0 29 3 22 23 -3 12 -12 32
-18 45 -12 23 -13 23 -28 -17z"/>
<path d="M7090 2889 l0 -81 38 7 c51 9 72 31 72 74 0 55 -23 81 -71 81 l-39 0
0 -81z"/>
<path d="M7657 2907 l-16 -47 35 0 c39 0 39 1 15 55 l-18 40 -16 -48z"/>
</g>
</svg>
